<?xml version="1.0" encoding="UTF-8"?>
<svg id="Camada_2" data-name="Camada 2" xmlns="http://www.w3.org/2000/svg" viewBox="0 0 695.85 129.95">
  <defs>
    <style>
      .cls-1 {
        fill: #fff;
      }

      .cls-1, .cls-2 {
        stroke-width: 0px;
      }

      .cls-2 {
        fill: #81ffd9;
      }
    </style>
  </defs>
  <g id="icon-0">
    <g id="tight-bounds">
      <g>
        <path id="r_-0" data-name="r$-0" class="cls-1" d="m196.26,17.73h0c2.34,0,4.24,3.12,4.24,6.96v80.59c0,3.84-1.9,6.96-4.24,6.96h0c-2.34,0-4.24-3.12-4.24-6.96V24.68c0-3.84,1.9-6.96,4.24-6.96Z"/>
        <g id="textblocktransform">
          <g id="text-0">
            <path class="cls-1" d="m222.75,81.63l7.42-11.3c2.5,1.41,5.03,2.67,7.59,3.8,2.57,1.13,5.23,2.08,7.98,2.87,2.76.77,5.66,1.36,8.7,1.77,3.03.42,6.26.63,9.7.63h0c4.13,0,7.65-.27,10.56-.81,2.91-.55,5.27-1.3,7.1-2.25,1.84-.95,3.17-2.08,4-3.41.84-1.32,1.26-2.76,1.26-4.31h0c0-2.5-1.04-4.48-3.12-5.93-2.09-1.45-5.3-2.18-9.64-2.18h0c-1.91,0-3.92.13-6.04.38-2.1.25-4.23.52-6.4.81-2.15.3-4.28.57-6.38.81-2.09.25-4.06.38-5.91.38h0c-3.08,0-6.03-.4-8.87-1.19-2.84-.79-5.35-1.98-7.53-3.57-2.17-1.57-3.91-3.55-5.21-5.93-1.29-2.38-1.93-5.15-1.93-8.33h0c0-1.87.25-3.74.76-5.59.52-1.84,1.34-3.6,2.47-5.3,1.13-1.68,2.59-3.25,4.38-4.7,1.79-1.45,3.95-2.71,6.49-3.77,2.53-1.06,5.47-1.89,8.79-2.49,3.34-.6,7.14-.9,11.39-.9h0c3.08,0,6.17.17,9.28.5,3.11.34,6.14.82,9.08,1.44,2.94.61,5.78,1.35,8.51,2.22,2.73.87,5.27,1.83,7.62,2.88h0l-6.13,11.26c-1.93-.85-4.01-1.64-6.24-2.36-2.23-.72-4.57-1.34-7.01-1.86-2.43-.53-4.94-.95-7.53-1.26-2.6-.31-5.24-.47-7.95-.47h0c-3.84,0-7,.28-9.48.85-2.47.55-4.45,1.26-5.91,2.13-1.48.87-2.5,1.83-3.06,2.9-.58,1.07-.87,2.13-.87,3.19h0c0,2.05.93,3.74,2.78,5.05,1.85,1.3,4.67,1.95,8.45,1.95h0c1.53,0,3.28-.11,5.26-.32,1.97-.22,4.05-.46,6.24-.72,2.19-.26,4.42-.5,6.69-.72,2.28-.23,4.49-.34,6.63-.34h0c4.05,0,7.63.46,10.76,1.37,3.12.91,5.74,2.21,7.84,3.89,2.11,1.68,3.72,3.72,4.81,6.11,1.08,2.39,1.62,5.07,1.62,8.04h0c0,3.95-.92,7.48-2.76,10.58-1.83,3.1-4.43,5.71-7.82,7.84-3.39,2.13-7.47,3.74-12.25,4.83-4.78,1.11-10.1,1.66-15.97,1.66h0c-3.88,0-7.66-.25-11.35-.74-3.7-.48-7.24-1.17-10.63-2.05-3.39-.9-6.61-1.98-9.68-3.23-3.06-1.24-5.9-2.61-8.51-4.11h0Zm90.23-7.21h0c0-2.5.54-4.78,1.62-6.83,1.08-2.05,2.71-3.82,4.88-5.3,2.17-1.48,4.88-2.62,8.11-3.42,3.24-.8,7.02-1.21,11.34-1.21h0c3.2,0,6.56.23,10.09.7,3.54.47,7.19,1.18,10.94,2.14h0c-.14-1.63-.64-3.15-1.5-4.54s-2.03-2.6-3.53-3.62c-1.51-1.01-3.33-1.79-5.46-2.34-2.13-.56-4.54-.85-7.24-.85h0c-1.47,0-3.08.09-4.83.27-1.77.18-3.59.44-5.46.79-1.87.35-3.73.79-5.57,1.32-1.83.53-3.53,1.16-5.12,1.89h0l-3.96-10.69c1.97-.71,4.07-1.35,6.31-1.93,2.25-.59,4.54-1.1,6.88-1.53,2.35-.42,4.7-.75,7.05-.99,2.34-.23,4.61-.34,6.81-.34h0c9.72,0,16.94,2.47,21.66,7.42,4.72,4.96,7.08,12.56,7.08,22.8h0v22.62h-13.03v-4.88c-1.35.79-2.82,1.54-4.42,2.25-1.6.7-3.34,1.31-5.23,1.84-1.87.53-3.89.95-6.04,1.26-2.16.3-4.45.45-6.85.45h0c-4.05,0-7.6-.44-10.67-1.32s-5.62-2.1-7.68-3.66c-2.05-1.55-3.6-3.38-4.65-5.48-1.03-2.09-1.55-4.37-1.55-6.83Zm13.71-.45h0c0,.85.22,1.67.67,2.45.44.78,1.15,1.47,2.11,2.07.97.6,2.22,1.08,3.73,1.44,1.5.37,3.32.56,5.46.56h0c2.29,0,4.51-.2,6.65-.61,2.14-.42,4.13-.97,5.98-1.64s3.52-1.45,5.01-2.32c1.5-.88,2.75-1.79,3.75-2.74h0v-2.29c-1.99-.55-3.96-1.02-5.91-1.41-1.96-.37-3.82-.67-5.59-.9-1.78-.22-3.45-.37-5.03-.45-1.56-.1-2.93-.14-4.11-.14h0c-2.44,0-4.46.16-6.07.49-1.61.32-2.91.76-3.91,1.3s-1.7,1.18-2.11,1.91c-.42.73-.63,1.5-.63,2.29Zm76.25,13.07v24.96h-13.03V38.86h13.03v4.88c1.14-.79,2.49-1.54,4.05-2.23,1.55-.71,3.22-1.33,5.01-1.86,1.79-.53,3.64-.94,5.55-1.24,1.9-.31,3.8-.47,5.71-.47h0c4.4,0,8.44.64,12.13,1.93,3.68,1.3,6.84,3.12,9.48,5.46s4.7,5.15,6.18,8.43c1.48,3.27,2.22,6.88,2.22,10.83h0c0,4.14-.77,7.88-2.32,11.21-1.56,3.33-3.71,6.17-6.45,8.52-2.74,2.37-5.99,4.19-9.77,5.46-3.77,1.27-7.86,1.91-12.25,1.91h0c-1.87,0-3.73-.11-5.57-.34-1.83-.24-3.59-.56-5.28-.97-1.68-.41-3.26-.9-4.74-1.48-1.49-.56-2.81-1.19-3.95-1.87h0Zm0-30.56v17.99c1.32,1.06,2.72,1.95,4.18,2.69,1.47.73,2.96,1.33,4.49,1.8,1.53.47,3.06.82,4.61,1.05,1.56.22,3.08.32,4.54.32h0c2.99,0,5.65-.4,7.98-1.21,2.33-.8,4.3-1.92,5.89-3.33,1.6-1.41,2.82-3.06,3.68-4.96.85-1.91,1.28-3.98,1.28-6.22h0c0-2.08-.42-4.04-1.26-5.89-.83-1.85-2.03-3.47-3.6-4.87-1.57-1.39-3.47-2.49-5.68-3.3s-4.7-1.21-7.46-1.21h0c-1.75,0-3.51.17-5.28.5-1.75.34-3.45.82-5.08,1.44-1.62.61-3.15,1.36-4.58,2.23-1.42.88-2.66,1.86-3.71,2.96h0Zm69.47-24.69h0c-1.3,0-2.46-.18-3.5-.54-1.05-.37-1.93-.87-2.67-1.5-.73-.64-1.3-1.38-1.69-2.22-.4-.83-.59-1.71-.59-2.65h0c0-.97.2-1.87.59-2.7.4-.84.96-1.57,1.69-2.18.73-.61,1.62-1.11,2.67-1.48,1.03-.37,2.2-.56,3.5-.56h0c1.32,0,2.5.19,3.53.56,1.05.37,1.93.87,2.67,1.48s1.3,1.34,1.69,2.18c.4.83.59,1.73.59,2.7h0c0,.94-.2,1.82-.59,2.65-.4.84-.96,1.58-1.69,2.22-.73.62-1.62,1.12-2.67,1.5-1.03.36-2.21.54-3.53.54Zm-6.51,59v-51.92h13.01v51.92h-13.01Zm27.23-26.13h0c0-3.52.71-6.88,2.14-10.09,1.44-3.22,3.51-6.06,6.2-8.52,2.7-2.46,6.01-4.43,9.93-5.89,3.92-1.47,8.37-2.2,13.35-2.2h0c4.95,0,9.41.74,13.39,2.22,3.98,1.48,7.35,3.51,10.13,6.09,2.78,2.58,4.9,5.62,6.38,9.12,1.48,3.48,2.22,7.22,2.22,11.21h0c0,.5,0,1.04-.02,1.6-.01.58-.05,1.1-.11,1.57h-49.11c.56,1.55,1.47,2.97,2.7,4.27,1.25,1.29,2.81,2.4,4.69,3.33,1.89.94,4.06,1.66,6.52,2.18,2.46.52,5.19.77,8.18.77h0c2.99,0,5.96-.32,8.92-.96,2.97-.62,5.8-1.42,8.51-2.4h0l4.4,9.95c-1.71.79-3.43,1.49-5.17,2.09-1.74.6-3.56,1.1-5.46,1.5-1.89.4-3.87.7-5.95.9-2.07.2-4.24.31-6.52.31h0c-5.84,0-10.96-.7-15.35-2.11-4.4-1.41-8.08-3.33-11.05-5.77-2.96-2.43-5.18-5.29-6.69-8.58-1.49-3.28-2.23-6.81-2.23-10.6Zm14.51-5.06h35.41c-.47-1.44-1.19-2.78-2.16-4.02-.99-1.25-2.21-2.34-3.68-3.26-1.47-.93-3.17-1.65-5.1-2.18-1.95-.53-4.07-.79-6.38-.79h0c-2.46,0-4.71.28-6.74.85-2.02.55-3.79,1.3-5.32,2.23-1.53.94-2.8,2.02-3.82,3.26-1.01,1.23-1.75,2.53-2.22,3.91h0Zm63.22,31.19v-51.92h13.03v4.4c3.46-1.96,6.76-3.33,9.91-4.13,3.16-.79,6.25-1.19,9.26-1.19h0c3.96,0,7.63.58,11.01,1.73,3.36,1.17,6.28,2.89,8.76,5.17,2.46,2.29,4.39,5.15,5.78,8.56,1.39,3.41,2.09,7.36,2.09,11.86h0v25.52h-12.99v-23.41c0-2.85-.4-5.39-1.21-7.62-.8-2.25-1.96-4.14-3.48-5.68-1.5-1.55-3.33-2.73-5.5-3.53-2.15-.8-4.56-1.21-7.23-1.21h0c-1.42,0-2.87.15-4.34.45-1.48.29-2.93.7-4.36,1.24-1.42.54-2.79,1.21-4.11,2.02-1.32.82-2.52,1.74-3.6,2.76h0v34.98h-13.03Zm69.04,0l31.81-41.09h-26.62v-10.83h50.77l-32.02,41.09h30.26v10.83h-54.19Z"/>
          </g>
        </g>
        <path class="cls-2" d="m165.2,65.91c-2.77.53-5.69.55-8.72.27,3.84-2.45,7.34-6,10.45-10.75,1.18-1.8.67-4.22-1.13-5.39-1.8-1.17-4.22-.67-5.39,1.14-5.64,8.63-12.01,12.02-19.58,10.79h0c-12.75-2.67-21.4-2.49-35.17-.49-5.68.83-6.74.97-9.1,1.18-4.59.41-8.45.23-12.46-.62-10.33-3.84-13.96-11.27-13.12-25.2.09-.16.23-.29.31-.47,1.22-3.05,2.15-6.05,2.84-9.03,5.82-3.84,9.83-8.77,11.84-14.77.68-2.04-.42-4.25-2.46-4.93-2.04-.69-4.25.42-4.93,2.46-.73,2.18-1.84,4.16-3.31,5.97-.02-4.54-.55-9-1.94-13.35-.65-2.05-2.85-3.18-4.9-2.53-2.06.67-3.19,2.86-2.53,4.92,2.79,8.75,2.22,18.03-1.72,28.01-.09.1-.21.18-.29.3-6.6,9.89-19.15,12.63-31.61,6.43h0s0,0-.02,0c-9.79-4.78-16.52-11.38-20.35-19.85-.89-1.96-3.2-2.84-5.16-1.95-1.96.88-2.83,3.2-1.95,5.15,1.88,4.15,4.47,7.82,7.49,11.21-2.31-.36-4.46-1.09-6.46-2.22-1.87-1.06-4.25-.41-5.32,1.47-1.05,1.87-.4,4.26,1.48,5.31,5.51,3.12,11.79,4.09,18.68,3.06,2.08,1.47,4.39,2.78,6.79,4.01,6.24,13.18,4.51,25.08-5.64,35.65-.19.2-.3.43-.44.65-.2.19-.43.34-.59.58-1.83,2.73-3.37,5.47-4.65,8.25-6.49,2.55-11.44,6.53-14.65,11.98-1.09,1.85-.48,4.24,1.38,5.34,1.86,1.1,4.24.48,5.34-1.39,1.16-1.97,2.66-3.68,4.48-5.15-.92,4.44-1.33,8.93-.88,13.46.21,2.14,2.12,3.71,4.26,3.49,2.14-.21,3.71-2.12,3.49-4.27-.9-9.05,1.56-17.95,7.37-26.8,14.27-4.05,28.03.83,35.14,11.34.09.13.21.2.31.33.04.19.02.4.09.59,1.12,3.09,2.45,5.94,3.93,8.61-1.75,6.74-1.43,13.11,1.08,18.9.86,1.98,3.16,2.88,5.13,2.03,1.97-.87,2.88-3.16,2.02-5.13-.91-2.1-1.42-4.32-1.53-6.66,3.06,3.35,6.43,6.32,10.37,8.61,1.86,1.1,4.25.48,5.33-1.39,1.09-1.86.46-4.25-1.4-5.35-8.02-4.69-13.88-12.08-17.62-22.3-.14-.39-.38-.7-.62-1.01-1.05-13.6,3.34-21.46,14.51-26.59,4.39.81,8.67,1.03,13.53.6,2.58-.23,3.69-.37,9.56-1.23,12.86-1.88,20.67-2.03,32.28.38,12.49,5.16,17.7,10.57,16.91,15.97-.31,2.13,1.16,4.11,3.3,4.41,2.13.32,4.11-1.15,4.41-3.29.66-4.55-.68-8.68-3.71-12.44,2.28-.03,4.51-.24,6.69-.66,2.11-.41,3.5-2.44,3.09-4.56-.39-2.11-2.43-3.49-4.55-3.09Zm-111.56,7.73c-4.32,0-7.82-3.5-7.82-7.82s3.5-7.83,7.82-7.83,7.83,3.5,7.83,7.83-3.5,7.82-7.83,7.82Z"/>
      </g>
    </g>
  </g>
</svg>